<svg width="22" height="23" viewBox="0 0 22 23" fill="none" xmlns="http://www.w3.org/2000/svg">
<path d="M16.4996 22.3056C17.9583 22.3056 19.3572 21.7288 20.3887 20.7021C21.4201 19.6754 21.9996 18.283 21.9996 16.831C21.9996 15.3791 21.4201 13.9866 20.3887 12.9599C19.3572 11.9333 17.9583 11.3565 16.4996 11.3565C15.0409 11.3565 13.6419 11.9333 12.6105 12.9599C11.579 13.9866 10.9996 15.3791 10.9996 16.831C10.9996 18.283 11.579 19.6754 12.6105 20.7021C13.6419 21.7288 15.0409 22.3056 16.4996 22.3056ZM17.2853 14.4848V16.0489H18.8567C19.0651 16.0489 19.265 16.1313 19.4123 16.278C19.5597 16.4247 19.6424 16.6236 19.6424 16.831C19.6424 17.0384 19.5597 17.2374 19.4123 17.384C19.265 17.5307 19.0651 17.6131 18.8567 17.6131H17.2853V19.1772C17.2853 19.3847 17.2025 19.5836 17.0552 19.7303C16.9078 19.8769 16.708 19.9593 16.4996 19.9593C16.2912 19.9593 16.0913 19.8769 15.944 19.7303C15.7966 19.5836 15.7139 19.3847 15.7139 19.1772V17.6131H14.1424C13.9341 17.6131 13.7342 17.5307 13.5869 17.384C13.4395 17.2374 13.3567 17.0384 13.3567 16.831C13.3567 16.6236 13.4395 16.4247 13.5869 16.278C13.7342 16.1313 13.9341 16.0489 14.1424 16.0489H15.7139V14.4848C15.7139 14.2774 15.7966 14.0784 15.944 13.9318C16.0913 13.7851 16.2912 13.7027 16.4996 13.7027C16.708 13.7027 16.9078 13.7851 17.0552 13.9318C17.2025 14.0784 17.2853 14.2774 17.2853 14.4848ZM14.1424 5.09987C14.1424 6.34439 13.6458 7.53793 12.7617 8.41794C11.8776 9.29795 10.6785 9.79233 9.42815 9.79233C8.17785 9.79233 6.97875 9.29795 6.09465 8.41794C5.21055 7.53793 4.71387 6.34439 4.71387 5.09987C4.71387 3.85535 5.21055 2.66181 6.09465 1.7818C6.97875 0.901793 8.17785 0.40741 9.42815 0.40741C10.6785 0.40741 11.8776 0.901793 12.7617 1.7818C13.6458 2.66181 14.1424 3.85535 14.1424 5.09987Z" fill="white"/>
<path d="M0 17.6131C0 19.1772 1.57143 19.1772 1.57143 19.1772H9.83086C9.56372 18.4236 9.42767 17.6302 9.42857 16.831C9.42753 15.825 9.64363 14.8306 10.0622 13.915C10.4808 12.9993 11.0922 12.1839 11.8549 11.5238C11.121 11.4159 10.3149 11.3565 9.42857 11.3565C1.57143 11.3565 0 16.0489 0 17.6131Z" fill="white"/>
</svg>
