<svg width="15" height="15" viewBox="0 0 11 11" fill="none" xmlns="http://www.w3.org/2000/svg">
<path d="M10.3639 1.48279C10.4255 1.54439 10.4602 1.62781 10.4602 1.71479C10.4602 1.80176 10.4255 1.88519 10.3639 1.94679L9.67519 2.63293L8.35463 1.31848L9.0433 0.632346C9.10521 0.570741 9.18917 0.536133 9.27671 0.536133C9.36425 0.536133 9.44821 0.570741 9.51012 0.632346L10.3639 1.48213V1.48279ZM9.20837 3.09692L7.88782 1.78248L3.38934 6.26078C3.353 6.29695 3.32565 6.34106 3.30945 6.3896L2.77793 7.97613C2.76829 8.00505 2.76692 8.03608 2.77397 8.06573C2.78103 8.09538 2.79623 8.1225 2.81788 8.14405C2.83953 8.16559 2.86677 8.18072 2.89656 8.18775C2.92635 8.19477 2.95752 8.19341 2.98657 8.18381L4.58049 7.65475C4.62919 7.63882 4.6735 7.61182 4.7099 7.57588L9.20837 3.09692Z" fill="#A2A0A0"/>
<path fill-rule="evenodd" clip-rule="evenodd" d="M0.789062 9.0805C0.789063 9.34195 0.89341 9.5927 1.07915 9.77758C1.26489 9.96246 1.5168 10.0663 1.77948 10.0663H9.04253C9.30521 10.0663 9.55713 9.96246 9.74286 9.77758C9.9286 9.5927 10.033 9.34195 10.033 9.0805V5.13717C10.033 5.05002 9.99817 4.96643 9.93626 4.90481C9.87434 4.84318 9.79037 4.80856 9.70281 4.80856C9.61525 4.80856 9.53128 4.84318 9.46937 4.90481C9.40746 4.96643 9.37267 5.05002 9.37267 5.13717V9.0805C9.37267 9.16765 9.33789 9.25123 9.27598 9.31286C9.21406 9.37449 9.13009 9.40911 9.04253 9.40911H1.77948C1.69192 9.40911 1.60795 9.37449 1.54604 9.31286C1.48412 9.25123 1.44934 9.16765 1.44934 9.0805V1.85107C1.44934 1.76391 1.48412 1.68033 1.54604 1.6187C1.60795 1.55708 1.69192 1.52246 1.77948 1.52246H6.07128C6.15884 1.52246 6.24282 1.48783 6.30473 1.42621C6.36664 1.36458 6.40142 1.281 6.40142 1.19384C6.40142 1.10669 6.36664 1.02311 6.30473 0.961482C6.24282 0.899856 6.15884 0.865234 6.07128 0.865234H1.77948C1.5168 0.865234 1.26489 0.969098 1.07915 1.15398C0.89341 1.33886 0.789063 1.58961 0.789062 1.85107V9.0805Z" fill="#A2A0A0"/>
</svg>
