<svg width="42" height="45" viewBox="0 0 42 45" fill="none" xmlns="http://www.w3.org/2000/svg">
<path d="M40.6747 4.47005C40.9367 4.7609 41.0839 5.15484 41.0839 5.56553C41.0839 5.97622 40.9367 6.37016 40.6747 6.66101L37.7492 9.90091L32.1395 3.69421L35.065 0.45431C35.328 0.163415 35.6846 0 36.0565 0C36.4284 0 36.785 0.163415 37.048 0.45431L40.6747 4.46694V4.47005ZM35.7662 12.0919L30.1565 5.88518L11.047 27.0314C10.8927 27.2022 10.7764 27.4105 10.7076 27.6397L8.44973 35.1312C8.40878 35.2677 8.40297 35.4142 8.43294 35.5542C8.46291 35.6943 8.52748 35.8223 8.61944 35.924C8.7114 36.0258 8.82713 36.0972 8.95368 36.1304C9.08023 36.1636 9.21262 36.1571 9.33606 36.1118L16.107 33.6136C16.3139 33.5384 16.5021 33.4109 16.6567 33.2412L35.7662 12.0919Z" fill="#3F3D56"/>
<path fill-rule="evenodd" clip-rule="evenodd" d="M0 40.3449C0 41.5795 0.443266 42.7636 1.23228 43.6365C2.0213 44.5095 3.09144 45 4.20728 45H35.0607C36.1765 45 37.2466 44.5095 38.0357 43.6365C38.8247 42.7636 39.2679 41.5795 39.2679 40.3449V21.7248C39.2679 21.3133 39.1202 20.9186 38.8572 20.6276C38.5942 20.3366 38.2375 20.1732 37.8655 20.1732C37.4936 20.1732 37.1369 20.3366 36.8739 20.6276C36.6108 20.9186 36.4631 21.3133 36.4631 21.7248V40.3449C36.4631 40.7565 36.3153 41.1512 36.0523 41.4421C35.7893 41.7331 35.4326 41.8966 35.0607 41.8966H4.20728C3.83533 41.8966 3.47862 41.7331 3.21562 41.4421C2.95261 41.1512 2.80485 40.7565 2.80485 40.3449V6.20807C2.80485 5.79654 2.95261 5.40187 3.21562 5.11087C3.47862 4.81988 3.83533 4.6564 4.20728 4.6564H22.4388C22.8108 4.6564 23.1675 4.49292 23.4305 4.20192C23.6935 3.91093 23.8413 3.51625 23.8413 3.10472C23.8413 2.69319 23.6935 2.29852 23.4305 2.00752C23.1675 1.71652 22.8108 1.55305 22.4388 1.55305H4.20728C3.09144 1.55305 2.0213 2.04348 1.23228 2.91647C0.443266 3.78946 0 4.97348 0 6.20807V40.3449Z" fill="#3F3D56"/>
</svg>
