<svg width="1" height="1" viewBox="0 0 24 24" fill="none" xmlns="http://www.w3.org/2000/svg">
<path d="M23.0014 2.89912C23.1496 3.04709 23.2328 3.24751 23.2328 3.45644C23.2328 3.66538 23.1496 3.8658 23.0014 4.01377L21.347 5.66206L18.1747 2.50442L19.8291 0.856129C19.9778 0.708137 20.1795 0.625 20.3898 0.625C20.6001 0.625 20.8018 0.708137 20.9505 0.856129L23.0014 2.89754V2.89912ZM20.2256 6.7767L17.0533 3.61906L6.24677 14.3771C6.15947 14.464 6.09375 14.57 6.05484 14.6866L4.77798 18.4979C4.75483 18.5673 4.75154 18.6419 4.76849 18.7131C4.78543 18.7843 4.82195 18.8495 4.87396 18.9012C4.92596 18.953 4.9914 18.9893 5.06297 19.0062C5.13454 19.0231 5.2094 19.0198 5.27921 18.9968L9.10821 17.7258C9.22521 17.6875 9.33165 17.6227 9.41909 17.5364L20.2256 6.7767Z" fill="white"/>
<path fill-rule="evenodd" clip-rule="evenodd" d="M0 21.1503C0 21.7784 0.25067 22.3807 0.696865 22.8249C1.14306 23.269 1.74823 23.5185 2.37924 23.5185H19.827C20.4581 23.5185 21.0632 23.269 21.5094 22.8249C21.9556 22.3807 22.2063 21.7784 22.2063 21.1503V11.6774C22.2063 11.468 22.1227 11.2672 21.974 11.1192C21.8253 10.9711 21.6235 10.888 21.4132 10.888C21.2029 10.888 21.0011 10.9711 20.8524 11.1192C20.7037 11.2672 20.6201 11.468 20.6201 11.6774V21.1503C20.6201 21.3596 20.5366 21.5604 20.3878 21.7085C20.2391 21.8565 20.0374 21.9397 19.827 21.9397H2.37924C2.16891 21.9397 1.96718 21.8565 1.81845 21.7085C1.66972 21.5604 1.58616 21.3596 1.58616 21.1503V3.78327C1.58616 3.5739 1.66972 3.37311 1.81845 3.22507C1.96718 3.07703 2.16891 2.99386 2.37924 2.99386H12.6893C12.8996 2.99386 13.1014 2.91069 13.2501 2.76265C13.3988 2.6146 13.4824 2.41381 13.4824 2.20445C13.4824 1.99508 13.3988 1.79429 13.2501 1.64625C13.1014 1.49821 12.8996 1.41504 12.6893 1.41504H2.37924C1.74823 1.41504 1.14306 1.66455 0.696865 2.10868C0.25067 2.55281 0 3.15517 0 3.78327V21.1503Z" fill="white"/>
</svg>
