<svg width="24" height="23" viewBox="0 0 24 23" fill="none" xmlns="http://www.w3.org/2000/svg">
<path d="M0 0.800942C0 0.589749 0.0842863 0.387207 0.234317 0.237871C0.384347 0.0885349 0.587832 0.00463867 0.800007 0.00463867H3.20003C3.37848 0.00468774 3.55179 0.0641236 3.6924 0.173494C3.83301 0.282865 3.93285 0.435891 3.97604 0.608237L4.62404 3.18985H23.2002C23.3217 3.18989 23.4416 3.21747 23.5509 3.27052C23.6601 3.32357 23.7557 3.40069 23.8305 3.49602C23.9053 3.59134 23.9573 3.70238 23.9825 3.8207C24.0078 3.93901 24.0056 4.0615 23.9762 4.17886L21.5762 13.7345C21.533 13.9069 21.4332 14.0599 21.2926 14.1692C21.152 14.2786 20.9786 14.3381 20.8002 14.3381H6.40006C6.22161 14.3381 6.0483 14.2786 5.90768 14.1692C5.76707 14.0599 5.66724 13.9069 5.62405 13.7345L2.57602 1.59725H0.800007C0.587832 1.59725 0.384347 1.51335 0.234317 1.36401C0.0842863 1.21468 0 1.01214 0 0.800942ZM5.02405 4.78246L5.82405 7.96768H8.00007V4.78246H5.02405ZM9.60009 4.78246V7.96768H12.8001V4.78246H9.60009ZM14.4001 4.78246V7.96768H17.6002V4.78246H14.4001ZM19.2002 4.78246V7.96768H21.3762L22.1762 4.78246H19.2002ZM20.9762 9.56028H19.2002V12.7455H20.1762L20.9762 9.56028ZM17.6002 9.56028H14.4001V12.7455H17.6002V9.56028ZM12.8001 9.56028H9.60009V12.7455H12.8001V9.56028ZM8.00007 9.56028H6.22406L7.02407 12.7455H8.00007V9.56028ZM8.00007 17.5233C7.57572 17.5233 7.16875 17.6911 6.86869 17.9898C6.56863 18.2885 6.40006 18.6935 6.40006 19.1159C6.40006 19.5383 6.56863 19.9434 6.86869 20.2421C7.16875 20.5407 7.57572 20.7085 8.00007 20.7085C8.42442 20.7085 8.83139 20.5407 9.13146 20.2421C9.43152 19.9434 9.60009 19.5383 9.60009 19.1159C9.60009 18.6935 9.43152 18.2885 9.13146 17.9898C8.83139 17.6911 8.42442 17.5233 8.00007 17.5233ZM4.80004 19.1159C4.80004 18.2712 5.13719 17.461 5.73731 16.8636C6.33743 16.2663 7.15137 15.9307 8.00007 15.9307C8.84877 15.9307 9.66271 16.2663 10.2628 16.8636C10.863 17.461 11.2001 18.2712 11.2001 19.1159C11.2001 19.9607 10.863 20.7709 10.2628 21.3682C9.66271 21.9656 8.84877 22.3011 8.00007 22.3011C7.15137 22.3011 6.33743 21.9656 5.73731 21.3682C5.13719 20.7709 4.80004 19.9607 4.80004 19.1159ZM19.2002 17.5233C18.7758 17.5233 18.3689 17.6911 18.0688 17.9898C17.7687 18.2885 17.6002 18.6935 17.6002 19.1159C17.6002 19.5383 17.7687 19.9434 18.0688 20.2421C18.3689 20.5407 18.7758 20.7085 19.2002 20.7085C19.6245 20.7085 20.0315 20.5407 20.3316 20.2421C20.6316 19.9434 20.8002 19.5383 20.8002 19.1159C20.8002 18.6935 20.6316 18.2885 20.3316 17.9898C20.0315 17.6911 19.6245 17.5233 19.2002 17.5233ZM16.0001 19.1159C16.0001 18.2712 16.3373 17.461 16.9374 16.8636C17.5375 16.2663 18.3515 15.9307 19.2002 15.9307C20.0489 15.9307 20.8628 16.2663 21.4629 16.8636C22.0631 17.461 22.4002 18.2712 22.4002 19.1159C22.4002 19.9607 22.0631 20.7709 21.4629 21.3682C20.8628 21.9656 20.0489 22.3011 19.2002 22.3011C18.3515 22.3011 17.5375 21.9656 16.9374 21.3682C16.3373 20.7709 16.0001 19.9607 16.0001 19.1159Z" fill="white"/>
</svg>
