<svg width="44" height="45" viewBox="0 0 44 45" fill="none" xmlns="http://www.w3.org/2000/svg">
<path d="M0 1.64665C0 1.22178 0.152545 0.814314 0.424077 0.513886C0.695608 0.213457 1.06388 0.0446777 1.44789 0.0446777H5.79155C6.11452 0.0447765 6.42819 0.164347 6.68267 0.384376C6.93716 0.604404 7.11784 0.912256 7.196 1.25897L8.36879 6.45258H41.9888C42.2087 6.45265 42.4257 6.50815 42.6234 6.61487C42.821 6.72159 42.9941 6.87673 43.1295 7.06851C43.2648 7.26028 43.3589 7.48366 43.4046 7.72169C43.4503 7.95971 43.4464 8.20613 43.3932 8.44223L39.0495 27.6659C38.9714 28.0127 38.7907 28.3205 38.5362 28.5405C38.2817 28.7606 37.9681 28.8801 37.6451 28.8802H11.5831C11.2601 28.8801 10.9465 28.7606 10.692 28.5405C10.4375 28.3205 10.2568 28.0127 10.1787 27.6659L4.6622 3.24863H1.44789C1.06388 3.24863 0.695608 3.07985 0.424077 2.77942C0.152545 2.47899 0 2.07152 0 1.64665ZM9.09274 9.65653L10.5406 16.0644H14.4789V9.65653H9.09274ZM17.3747 9.65653V16.0644H23.1662V9.65653H17.3747ZM26.062 9.65653V16.0644H31.8535V9.65653H26.062ZM34.7493 9.65653V16.0644H38.6876L40.1355 9.65653H34.7493ZM37.9636 19.2684H34.7493V25.6763H36.5157L37.9636 19.2684ZM31.8535 19.2684H26.062V25.6763H31.8535V19.2684ZM23.1662 19.2684H17.3747V25.6763H23.1662V19.2684ZM14.4789 19.2684H11.2646L12.7125 25.6763H14.4789V19.2684ZM14.4789 35.2881C13.7109 35.2881 12.9743 35.6257 12.4313 36.2266C11.8882 36.8274 11.5831 37.6423 11.5831 38.4921C11.5831 39.3418 11.8882 40.1568 12.4313 40.7576C12.9743 41.3585 13.7109 41.696 14.4789 41.696C15.2469 41.696 15.9834 41.3585 16.5265 40.7576C17.0696 40.1568 17.3747 39.3418 17.3747 38.4921C17.3747 37.6423 17.0696 36.8274 16.5265 36.2266C15.9834 35.6257 15.2469 35.2881 14.4789 35.2881ZM8.68733 38.4921C8.68733 36.7926 9.29751 35.1627 10.3836 33.961C11.4698 32.7593 12.9429 32.0842 14.4789 32.0842C16.0149 32.0842 17.488 32.7593 18.5741 33.961C19.6603 35.1627 20.2704 36.7926 20.2704 38.4921C20.2704 40.1916 19.6603 41.8214 18.5741 43.0232C17.488 44.2249 16.0149 44.9 14.4789 44.9C12.9429 44.9 11.4698 44.2249 10.3836 43.0232C9.29751 41.8214 8.68733 40.1916 8.68733 38.4921ZM34.7493 35.2881C33.9813 35.2881 33.2448 35.6257 32.7017 36.2266C32.1586 36.8274 31.8535 37.6423 31.8535 38.4921C31.8535 39.3418 32.1586 40.1568 32.7017 40.7576C33.2448 41.3585 33.9813 41.696 34.7493 41.696C35.5173 41.696 36.2539 41.3585 36.7969 40.7576C37.34 40.1568 37.6451 39.3418 37.6451 38.4921C37.6451 37.6423 37.34 36.8274 36.7969 36.2266C36.2539 35.6257 35.5173 35.2881 34.7493 35.2881ZM28.9578 38.4921C28.9578 36.7926 29.5679 35.1627 30.6541 33.961C31.7402 32.7593 33.2133 32.0842 34.7493 32.0842C36.2853 32.0842 37.7584 32.7593 38.8446 33.961C39.9307 35.1627 40.5409 36.7926 40.5409 38.4921C40.5409 40.1916 39.9307 41.8214 38.8446 43.0232C37.7584 44.2249 36.2853 44.9 34.7493 44.9C33.2133 44.9 31.7402 44.2249 30.6541 43.0232C29.5679 41.8214 28.9578 40.1916 28.9578 38.4921Z" fill="#3F3D56"/>
</svg>
