<svg width="43" height="48" viewBox="0 0 43 48" fill="none" xmlns="http://www.w3.org/2000/svg">
<path d="M21.8332 3.07218C21.5148 2.93033 21.1594 2.93033 20.841 3.07218L4.92354 10.1489L11.3353 12.998L27.7489 5.70188L21.8332 3.07218ZM31.3389 7.29985L14.9253 14.596L21.3371 17.4451L37.7507 10.1489L31.3389 7.29985ZM40.0071 12.3399L22.6707 20.0481V43.5345L40.0071 35.8263V12.3399ZM20.0035 43.5375V20.0451L2.66714 12.3399V35.8292L20.0035 43.5375ZM19.8515 0.317967C20.8052 -0.105989 21.869 -0.105989 22.8227 0.317967L41.8367 8.77331C42.084 8.88344 42.2958 9.07332 42.4451 9.31849C42.5944 9.56367 42.6742 9.8529 42.6742 10.1489V35.8292C42.6739 36.4216 42.5139 37.0004 42.2149 37.4907C41.9158 37.9811 41.4915 38.3607 40.9966 38.5805L21.8332 47.1011C21.5148 47.2429 21.1594 47.2429 20.841 47.1011L1.6803 38.5805C1.18488 38.3612 0.759981 37.9818 0.46046 37.4914C0.16094 37.001 0.000550309 36.422 0 35.8292L0 10.1489C6.19842e-05 9.8529 0.0798641 9.56367 0.229126 9.31849C0.378388 9.07332 0.590272 8.88344 0.837482 8.77331L19.8515 0.317967Z" fill="#3F3D56"/>
</svg>
