<svg width="22" height="18" viewBox="0 0 17 10" fill="none" xmlns="http://www.w3.org/2000/svg">
<path d="M16.1189 5.10315C16.1189 5.10315 13.0966 0.536133 8.05944 0.536133C3.02229 0.536133 0 5.10315 0 5.10315C0 5.10315 3.02229 9.67016 8.05944 9.67016C13.0966 9.67016 16.1189 5.10315 16.1189 5.10315ZM1.18172 5.10315C1.66882 4.49293 2.22908 3.9246 2.85405 3.40671C4.15061 2.33637 5.92369 1.3665 8.05944 1.3665C10.1952 1.3665 11.9673 2.33637 13.2658 3.40671C13.8908 3.9246 14.4511 4.49293 14.9382 5.10315C14.8797 5.17539 14.8153 5.2551 14.7417 5.34229C14.4042 5.74087 13.9056 6.2723 13.2658 6.79959C11.9673 7.86993 10.1942 8.8398 8.05944 8.8398C5.92369 8.8398 4.15162 7.86993 2.85304 6.79959C2.22808 6.28169 1.66883 5.71336 1.18172 5.10315Z" fill="#A2A0A0"/>
<path d="M8.05921 3.02727C7.39124 3.02727 6.75063 3.24598 6.27831 3.63529C5.80598 4.0246 5.54063 4.55261 5.54063 5.10318C5.54063 5.65375 5.80598 6.18177 6.27831 6.57108C6.75063 6.96038 7.39124 7.1791 8.05921 7.1791C8.72717 7.1791 9.36778 6.96038 9.84011 6.57108C10.3124 6.18177 10.5778 5.65375 10.5778 5.10318C10.5778 4.55261 10.3124 4.0246 9.84011 3.63529C9.36778 3.24598 8.72717 3.02727 8.05921 3.02727ZM4.5332 5.10318C4.5332 4.33239 4.90469 3.59316 5.56595 3.04813C6.2272 2.5031 7.12405 2.1969 8.05921 2.1969C8.99436 2.1969 9.89121 2.5031 10.5525 3.04813C11.2137 3.59316 11.5852 4.33239 11.5852 5.10318C11.5852 5.87398 11.2137 6.6132 10.5525 7.15823C9.89121 7.70327 8.99436 8.00946 8.05921 8.00946C7.12405 8.00946 6.2272 7.70327 5.56595 7.15823C4.90469 6.6132 4.5332 5.87398 4.5332 5.10318Z" fill="#A2A0A0"/>
</svg>
