<svg width="56" height="47" viewBox="0 0 45 36" fill="none" xmlns="http://www.w3.org/2000/svg">
<path d="M21.7515 9.79496L7.44859 21.5205V34.1758C7.44859 34.5035 7.57937 34.8178 7.81214 35.0495C8.04492 35.2812 8.36063 35.4113 8.68983 35.4113L17.3832 35.3889C17.7113 35.3873 18.0254 35.2564 18.2568 35.0249C18.4883 34.7934 18.6182 34.4801 18.6182 34.1535V26.7629C18.6182 26.4352 18.749 26.121 18.9817 25.8893C19.2145 25.6576 19.5302 25.5274 19.8594 25.5274H24.8244C25.1536 25.5274 25.4693 25.6576 25.7021 25.8893C25.9348 26.121 26.0656 26.4352 26.0656 26.7629V34.148C26.0651 34.3106 26.0968 34.4717 26.159 34.622C26.2211 34.7724 26.3125 34.909 26.4278 35.0242C26.5431 35.1393 26.6801 35.2307 26.831 35.293C26.9818 35.3553 27.1435 35.3874 27.3069 35.3874L35.9971 35.4113C36.3263 35.4113 36.642 35.2812 36.8748 35.0495C37.1075 34.8178 37.2383 34.5035 37.2383 34.1758V21.5121L22.9385 9.79496C22.7704 9.66008 22.5609 9.58652 22.345 9.58652C22.1291 9.58652 21.9197 9.66008 21.7515 9.79496ZM44.3444 17.7647L37.8589 12.4435V1.74805C37.8589 1.50229 37.7609 1.2666 37.5863 1.09283C37.4117 0.919052 37.1749 0.821426 36.928 0.821426H32.5837C32.3368 0.821426 32.1 0.919052 31.9254 1.09283C31.7508 1.2666 31.6527 1.50229 31.6527 1.74805V7.35486L24.7072 1.66697C24.0407 1.12102 23.2043 0.822518 22.3411 0.822518C21.4779 0.822518 20.6415 1.12102 19.975 1.66697L0.337849 17.7647C0.243582 17.8422 0.165592 17.9375 0.108334 18.0451C0.0510753 18.1526 0.0156712 18.2704 0.0041443 18.3916C-0.00738262 18.5127 0.00519354 18.635 0.0411542 18.7514C0.0771149 18.8677 0.135755 18.9759 0.213725 19.0696L2.19195 21.4634C2.26971 21.5575 2.36535 21.6354 2.4734 21.6927C2.58145 21.75 2.69979 21.7855 2.82164 21.7972C2.94349 21.8089 3.06646 21.7965 3.18351 21.7608C3.30056 21.7252 3.4094 21.6669 3.50378 21.5893L21.7515 6.62901C21.9197 6.49413 22.1291 6.42058 22.345 6.42058C22.5609 6.42058 22.7704 6.49413 22.9385 6.62901L41.187 21.5893C41.2812 21.6669 41.3899 21.7253 41.5068 21.761C41.6237 21.7968 41.7465 21.8094 41.8683 21.7979C41.99 21.7864 42.1083 21.7512 42.2164 21.6942C42.3244 21.6372 42.4201 21.5596 42.4981 21.4657L44.4763 19.072C44.5542 18.9776 44.6126 18.8689 44.6481 18.7521C44.6836 18.6352 44.6956 18.5125 44.6834 18.391C44.6711 18.2695 44.6349 18.1517 44.5767 18.0442C44.5185 17.9367 44.4396 17.8417 44.3444 17.7647Z" fill="#7E2726"/>
</svg>
