<svg width="37" height="41" viewBox="0 0 37 41" fill="none" xmlns="http://www.w3.org/2000/svg">
<path d="M27.2434 40.7718C29.6518 40.7718 31.9616 39.7133 33.6646 37.829C35.3676 35.9448 36.3244 33.3892 36.3244 30.7244C36.3244 28.0597 35.3676 25.5041 33.6646 23.6199C31.9616 21.7356 29.6518 20.6771 27.2434 20.6771C24.835 20.6771 22.5252 21.7356 20.8222 23.6199C19.1192 25.5041 18.1624 28.0597 18.1624 30.7244C18.1624 33.3892 19.1192 35.9448 20.8222 37.829C22.5252 39.7133 24.835 40.7718 27.2434 40.7718ZM28.5407 26.4184V29.2891H31.1353C31.4793 29.2891 31.8093 29.4403 32.0526 29.7095C32.2959 29.9787 32.4325 30.3438 32.4325 30.7244C32.4325 31.1051 32.2959 31.4702 32.0526 31.7394C31.8093 32.0086 31.4793 32.1598 31.1353 32.1598H28.5407V35.0305C28.5407 35.4111 28.404 35.7762 28.1607 36.0454C27.9174 36.3146 27.5875 36.4658 27.2434 36.4658C26.8993 36.4658 26.5694 36.3146 26.3261 36.0454C26.0828 35.7762 25.9461 35.4111 25.9461 35.0305V32.1598H23.3516C23.0075 32.1598 22.6775 32.0086 22.4342 31.7394C22.191 31.4702 22.0543 31.1051 22.0543 30.7244C22.0543 30.3438 22.191 29.9787 22.4342 29.7095C22.6775 29.4403 23.0075 29.2891 23.3516 29.2891H25.9461V26.4184C25.9461 26.0377 26.0828 25.6727 26.3261 25.4035C26.5694 25.1343 26.8993 24.9831 27.2434 24.9831C27.5875 24.9831 27.9174 25.1343 28.1607 25.4035C28.404 25.6727 28.5407 26.0377 28.5407 26.4184ZM23.3516 9.19432C23.3516 11.4784 22.5315 13.6689 21.0718 15.284C19.612 16.899 17.6322 17.8064 15.5679 17.8064C13.5035 17.8064 11.5237 16.899 10.064 15.284C8.60425 13.6689 7.78418 11.4784 7.78418 9.19432C7.78418 6.91027 8.60425 4.71976 10.064 3.10469C11.5237 1.48961 13.5035 0.582275 15.5679 0.582275C17.6322 0.582275 19.612 1.48961 21.0718 3.10469C22.5315 4.71976 23.3516 6.91027 23.3516 9.19432Z" fill="#3F3D56"/>
<path d="M0 32.16C0 35.0307 2.59456 35.0307 2.59456 35.0307H16.2316C15.7905 33.6475 15.5659 32.1913 15.5674 30.7246C15.5657 28.8784 15.9225 27.0533 16.6136 25.3728C17.3047 23.6923 18.3141 22.1958 19.5734 20.9844C18.3617 20.7863 17.0307 20.6772 15.5674 20.6772C2.59456 20.6772 0 29.2893 0 32.16Z" fill="#3F3D56"/>
</svg>
