<svg width="57" height="54" viewBox="0 0 37 34" fill="none" xmlns="http://www.w3.org/2000/svg">
<path fill-rule="evenodd" clip-rule="evenodd" d="M12.1101 0.00907795C11.9331 0.202442 12.7216 1.98052 13.2878 2.66464C13.7101 3.17495 13.9643 3.35042 19.7196 7.10313C21.8904 8.51865 23.7053 9.63227 23.7525 9.57777C23.8934 9.41569 24.3214 7.53856 24.2583 7.35929C24.2263 7.2683 23.7204 6.91344 23.1341 6.57079C20.5822 5.07932 13.6758 0.91263 12.5615 0.192253C12.3476 0.0539831 12.1445 -0.0284812 12.1101 0.00907795ZM12.8961 3.76535C12.8961 4.05456 13.6296 5.57292 14.1107 6.27979C14.5709 6.95586 14.7725 7.10681 18.2227 9.36035L21.8508 11.73L22.502 11.6947C23.2566 11.6538 23.42 11.5211 23.4981 10.8855L23.555 10.4229L22.3772 9.65929C21.7296 9.23926 19.3782 7.70728 17.1522 6.25479C14.9261 4.80231 13.0579 3.61393 13.0005 3.61393C12.943 3.61393 12.8961 3.68205 12.8961 3.76535ZM25.2217 6.3561C25.1179 6.68856 23.9674 11.5882 23.9674 11.6977C23.9674 11.7606 24.1541 12.0438 24.3824 12.3268C24.6107 12.61 24.8568 13.058 24.9295 13.3225C25.0021 13.587 25.0962 13.8016 25.1385 13.7993C25.1809 13.7971 25.7173 12.7974 26.3303 11.5778C26.9434 10.3582 27.6028 9.05704 27.7956 8.6863L28.1462 8.01214L27.7663 7.58275C27.392 7.15977 26.1505 6.4183 25.5693 6.27091C25.3667 6.21949 25.2558 6.24662 25.2217 6.3561ZM13.8733 7.67197C13.8739 8.06154 14.5449 9.45194 15.0863 10.1851C15.4813 10.7201 15.9565 11.0858 18.0938 12.5003C20.7037 14.2276 20.8136 14.2725 20.818 13.6138C20.8189 13.4768 20.9381 13.1216 21.0829 12.8243C21.4004 12.1727 21.4511 12.2398 19.8971 11.2551C19.3001 10.8768 17.7308 9.85585 16.4096 8.9863C15.0886 8.11676 13.9773 7.40538 13.9403 7.40538C13.9033 7.40538 13.8731 7.52541 13.8733 7.67197ZM27.4645 10.7447C27.1594 11.3432 26.9344 11.8763 26.9646 11.9295C26.9947 11.9827 27.482 12.0262 28.0474 12.0262C29.2583 12.0262 29.34 11.9435 28.9681 11.0954C28.6849 10.4499 28.2035 9.65656 28.0951 9.65656C28.0533 9.65656 27.7695 10.1463 27.4645 10.7447ZM14.7413 11.3955C14.7413 11.7823 15.6035 13.5159 16.1023 14.1323C16.4724 14.5895 17.0472 15.0428 18.243 15.8206C19.1422 16.4055 19.9117 16.884 19.9531 16.884C20.0619 16.884 21.1453 15.6151 21.1453 15.4877C21.1453 15.4287 21.0597 15.3022 20.9553 15.2064C20.7242 14.9947 14.9012 11.1968 14.8077 11.1968C14.7712 11.1968 14.7413 11.2863 14.7413 11.3955ZM22.0181 12.692C21.3603 13.2961 21.1917 14.0837 21.5525 14.8674C22.103 16.0637 23.4404 16.1116 24.2197 14.9632C24.6818 14.2823 24.3631 12.9666 23.6366 12.5566C23.1296 12.2703 22.4117 12.3304 22.0181 12.692ZM26.4638 12.8556C26.3444 12.9859 26.2467 13.1606 26.2467 13.2439C26.2467 13.327 26.613 13.6321 27.0608 13.922C27.8933 14.4608 27.997 14.6115 27.7126 14.8693C27.5792 14.9902 27.4193 14.9298 26.8106 14.5283C26.0441 14.0228 25.8704 13.9609 25.7607 14.1548C25.7251 14.2177 26.0885 14.518 26.5683 14.8224C27.0481 15.1267 27.4407 15.4116 27.4407 15.4556C27.4407 15.4994 27.3737 15.6353 27.2919 15.7576C27.15 15.9693 27.1042 15.9533 26.3161 15.4171C25.5653 14.9063 25.2698 14.8184 25.2698 15.1057C25.2698 15.1626 25.6381 15.4378 26.0882 15.7174C26.7302 16.116 26.8999 16.2773 26.8752 16.4648C26.8236 16.8564 26.5499 16.8039 25.6853 16.2368C25.2347 15.9411 24.7906 15.6992 24.6985 15.6992C24.4886 15.6992 21.2331 19.3634 21.2867 19.5394C21.3333 19.692 25.4752 19.7845 26.8767 19.6642C27.5979 19.6023 27.8364 19.532 28.0706 19.3125C28.3551 19.0456 28.3648 18.9942 28.4175 17.4575L28.4718 15.8769L29.0688 15.8177L29.6658 15.7584L29.6936 14.8698C29.7106 14.327 29.6683 13.8721 29.585 13.7009C29.51 13.5466 29.1363 13.2401 28.7546 13.0196C28.1763 12.6856 27.9454 12.6186 27.3707 12.6186C26.8256 12.6186 26.6353 12.6684 26.4638 12.8556ZM23.4246 14.7443C23.4246 15.0634 23.2193 15.1704 23.0215 14.9544C22.8237 14.7385 22.9217 14.5144 23.214 14.5144C23.3502 14.5144 23.4246 14.5956 23.4246 14.7443ZM15.6922 15.0562C15.5947 15.1627 15.7607 15.6811 16.19 16.6115C16.5694 17.4333 17.7829 19.0167 18.0334 19.0167C18.1559 19.0167 19.4086 17.6016 19.4086 17.4631C19.4086 17.4208 18.7663 16.9666 17.9811 16.4538C17.196 15.941 16.3739 15.4015 16.1542 15.2547C15.9345 15.1079 15.7266 15.0186 15.6922 15.0562ZM20.1263 17.7321C19.3733 18.5896 18.7574 19.357 18.7574 19.4373C18.7574 19.5799 19.4942 19.9646 19.7672 19.9646C19.8907 19.9646 22.7734 16.746 22.7734 16.6082C22.7734 16.5384 21.8104 16.1731 21.6266 16.1731C21.5543 16.1731 20.8791 16.8747 20.1263 17.7321ZM2.39479 17.7301C2.19442 17.9504 2.21461 19.4213 2.42051 19.6078C2.63021 19.7979 2.91036 19.6774 2.91036 19.3973C2.91036 19.2655 3.04788 19.1103 3.25498 19.0084C3.44449 18.9153 3.64703 18.7539 3.7051 18.65C3.84967 18.391 3.7115 17.861 3.47998 17.7869C2.93641 17.6126 2.52135 17.5909 2.39479 17.7301ZM4.249 17.9001C4.00619 18.1652 3.97688 18.2776 4.02605 18.7545C4.08944 19.3678 4.3863 19.7276 4.82904 19.7276C5.24432 19.7276 5.48691 19.5289 5.62356 19.0769C5.9621 17.9572 4.97264 17.1102 4.249 17.9001ZM6.08519 17.6734C5.9951 17.7131 5.94951 18.0065 5.94951 18.546C5.94951 19.2516 5.98131 19.3831 6.1908 19.5431C6.32344 19.6446 6.5568 19.7276 6.7093 19.7276C6.8618 19.7276 7.09516 19.6446 7.2278 19.5431C7.43718 19.3832 7.46909 19.2514 7.46909 18.5487C7.46909 17.9808 7.42556 17.7205 7.32353 17.6779C7.02201 17.5514 6.8745 17.8106 6.87331 18.4685C6.87211 19.1068 6.78409 19.3749 6.63072 19.2074C6.58752 19.1602 6.54823 18.8433 6.54345 18.503C6.53194 17.686 6.43892 17.5176 6.08519 17.6734ZM7.92746 17.7794C7.55364 18.0652 7.61356 18.504 8.06606 18.7955C8.52975 19.0941 8.56297 19.3006 8.13065 19.1969C7.7412 19.1036 7.56547 19.3383 7.85311 19.5679C8.36759 19.9785 9.30419 19.5526 9.14377 18.9811C9.045 18.6293 8.90118 18.4475 8.65327 18.3616C8.35696 18.259 8.39646 18.0914 8.70201 18.1551C9.03447 18.2245 9.17427 17.8852 8.88327 17.7152C8.58609 17.5416 8.20489 17.5672 7.92746 17.7794ZM9.82964 17.7601C9.5965 18.0147 9.26143 19.4804 9.40145 19.6332C9.51889 19.7614 9.66227 19.7211 9.98117 19.4704C10.1234 19.3584 10.1964 19.3704 10.3416 19.5288C10.5429 19.7485 10.7869 19.7879 10.884 19.6165C10.9746 19.4564 10.537 17.8065 10.374 17.6935C10.1717 17.5533 9.99984 17.5744 9.82964 17.7601ZM13.4207 17.743C13.2585 17.8859 12.8961 19.119 12.8961 19.5281C12.8961 19.7776 13.2548 19.7921 13.4389 19.5499C13.5132 19.4522 13.6361 19.3722 13.7118 19.3722C13.7877 19.3722 13.8779 19.4522 13.9123 19.5499C13.9783 19.7378 14.3648 19.795 14.4578 19.6306C14.5154 19.529 14.1727 17.9552 14.0434 17.7268C13.944 17.5512 13.6292 17.5594 13.4207 17.743ZM11.205 17.8732C11.1741 17.9612 11.1634 18.4011 11.1813 18.8507L11.2138 19.6684L11.7976 19.6625C12.2728 19.6577 12.4191 19.6057 12.5845 19.3828C12.8608 19.0103 12.8535 18.2593 12.5705 17.9504C12.3086 17.6645 11.2984 17.6075 11.205 17.8732ZM5.03386 18.353C5.13176 18.7789 5.04797 19.1944 4.8641 19.1944C4.69445 19.1944 4.57831 18.5538 4.69022 18.2353C4.78107 17.9769 4.96157 18.0388 5.03386 18.353ZM3.12744 18.3651C3.12744 18.4628 3.0786 18.5428 3.0189 18.5428C2.9592 18.5428 2.91036 18.4628 2.91036 18.3651C2.91036 18.2673 2.9592 18.1873 3.0189 18.1873C3.0786 18.1873 3.12744 18.2673 3.12744 18.3651ZM12.1157 18.7C12.1414 19.0311 12.1089 19.1352 11.9801 19.1352C11.8543 19.1352 11.8107 19.0108 11.8107 18.6514C11.8107 18.034 12.0674 18.075 12.1157 18.7ZM1.85328 20.5632C0.869242 20.9895 0.329792 21.7756 0.0835119 23.1418C-0.151588 24.4462 0.12161 25.9216 0.753103 26.7578C1.20485 27.356 1.79781 27.6609 2.73257 27.7754C3.69186 27.8928 4.07121 28.0977 4.7218 28.8501C4.99891 29.1707 5.26245 29.4082 5.30738 29.3778C5.35232 29.3475 5.62085 28.9682 5.90414 28.5348L6.41917 27.7469L6.17528 27.5314C6.04112 27.4128 5.64505 27.2512 5.29512 27.1723L4.65885 27.0288L5.02811 26.5826C5.74448 25.7169 5.89557 25.2539 5.89231 23.9338C5.88905 22.6415 5.71984 22.0424 5.15011 21.3068C4.47813 20.4391 2.94032 20.0922 1.85328 20.5632ZM6.88351 20.6553C6.8529 20.7094 6.81697 21.9012 6.80362 23.3037C6.77985 25.7916 6.78571 25.8677 7.04274 26.4332C7.20685 26.794 7.47983 27.1441 7.76584 27.3605C8.16201 27.6603 8.34936 27.7153 9.12261 27.7594C10.3166 27.8272 10.8755 27.6517 11.4452 27.03C12.0848 26.3316 12.1458 25.9701 12.1114 23.0827L12.0821 20.6162H11.1052H10.1283L10.0741 23.1754C10.0333 25.1004 9.9829 25.7831 9.87089 25.9301C9.66314 26.2027 9.1327 26.1825 8.99246 25.8966C8.92582 25.7605 8.88012 24.7052 8.88012 23.2997C8.88012 21.9973 8.85049 20.8475 8.81424 20.7444C8.76149 20.5942 8.5685 20.557 7.84377 20.557C7.34622 20.557 6.91412 20.6012 6.88351 20.6553ZM13.081 20.6318C12.978 20.7442 12.983 27.5449 13.0861 27.5572C13.6029 27.6186 14.8569 27.616 14.95 27.5532C15.0347 27.496 15.0619 26.4583 15.0416 24.0441L15.0127 20.6162L14.085 20.5824C13.5747 20.5638 13.1229 20.5859 13.081 20.6318ZM15.9915 20.6719C15.9558 20.7352 15.8992 22.2704 15.8656 24.0835C15.8131 26.9351 15.827 27.4002 15.9688 27.5287C16.0748 27.6248 16.3956 27.6648 16.8753 27.6421L17.6177 27.6067V25.622C17.6177 24.5305 17.6257 23.6373 17.6356 23.6374C17.6455 23.6376 17.8381 24.4705 18.0637 25.4886C18.2893 26.5068 18.5412 27.4131 18.6234 27.5028C18.8341 27.7328 20.8504 27.7334 21.0251 27.5035C21.1127 27.3884 21.1403 26.3604 21.1199 23.9787L21.091 20.6162H20.2227H19.3543L19.3584 22.6662L19.3624 24.7161L18.9154 22.7762C18.6696 21.7091 18.4328 20.7734 18.3894 20.6966C18.2918 20.5242 16.088 20.5016 15.9915 20.6719ZM21.9542 20.8331C21.9194 20.985 21.9063 21.3448 21.925 21.6328C21.9581 22.1383 21.9726 22.1576 22.3392 22.1873C22.5482 22.2043 22.8769 22.2465 23.0698 22.2812L23.4205 22.3441L23.4497 24.9755L23.4789 27.6067L24.3304 27.6416C24.8648 27.6634 25.2387 27.6249 25.3344 27.5381C25.4566 27.4275 25.4869 26.9001 25.4869 24.8818V22.3636L26.0939 22.3087C26.4278 22.2784 26.7389 22.1864 26.7856 22.104C26.8956 21.9097 27.0171 20.7902 26.9426 20.6584C26.911 20.6026 25.79 20.557 24.4514 20.557H22.0177L21.9542 20.8331ZM27.9396 21.1198C27.8463 21.4294 27.6277 22.2691 27.4537 22.9859C27.2798 23.7027 26.954 24.9981 26.7295 25.8645C26.4567 26.9174 26.3575 27.4789 26.4304 27.5584C26.5 27.6345 26.8865 27.6432 27.5047 27.5827L28.4702 27.4883L28.5641 26.9255L28.6581 26.3627H29.2893H29.9205L30.011 26.9847L30.1014 27.6067L31.1065 27.6409C31.9037 27.6679 32.1241 27.6396 32.1718 27.5038C32.2049 27.4096 31.978 26.3278 31.6676 25.1C31.3572 23.872 30.9895 22.3998 30.8507 21.8282C30.7119 21.2565 30.5687 20.7367 30.5327 20.673C30.4963 20.6089 29.9398 20.557 29.2881 20.557H28.1094L27.9396 21.1198ZM3.51765 22.2279C3.68708 22.432 3.73115 22.7012 3.76176 23.72C3.82048 25.6793 3.67167 26.1257 2.95942 26.1257C2.33878 26.1257 2.20484 25.7577 2.20484 24.0526C2.20484 22.8813 2.2399 22.5621 2.39728 22.2997C2.64205 21.8916 3.20841 21.8553 3.51765 22.2279ZM29.4927 23.6011C29.651 24.7367 29.6572 24.7039 29.2859 24.7039C28.906 24.7039 28.8962 24.6398 29.0855 23.3884C29.1544 22.9329 29.2476 22.6027 29.2925 22.6546C29.3373 22.7065 29.4275 23.1324 29.4927 23.6011ZM33.6511 26.9031C33.518 27.0047 33.338 27.2381 33.251 27.4218C33.108 27.7236 33.1115 27.7742 33.2873 27.9479C33.5177 28.1753 33.6683 28.1881 33.9396 28.0032C34.098 27.8951 34.1939 27.9076 34.3964 28.0624C34.7737 28.3509 35.1235 28.3024 35.4811 27.9121C35.8669 27.4909 35.8858 27.1416 35.536 26.8915C35.3201 26.737 35.2351 26.7301 35.0556 26.8525C34.8848 26.969 34.776 26.9705 34.5531 26.8596C34.1723 26.6703 33.941 26.6814 33.6511 26.9031ZM13.276 28.5537C12.3385 28.913 11.8435 30.0358 11.9444 31.5746C12.0475 33.148 12.8144 33.99 14.1444 33.99C15.4769 33.99 16.2412 33.1486 16.3448 31.5672C16.4085 30.5954 16.2361 29.7642 15.8583 29.223C15.3281 28.4631 14.2448 28.1825 13.276 28.5537ZM27.9472 28.4559C27.9074 28.4993 27.8759 29.4191 27.8772 30.4997C27.88 32.8644 27.9973 33.2912 28.7622 33.7224C29.3751 34.068 30.4625 34.0952 31.0518 33.7798C31.8406 33.3578 31.9305 33.0824 32.0214 30.8085C32.0658 29.6992 32.0757 28.6983 32.0435 28.5842C31.9949 28.4129 31.8542 28.3769 31.2323 28.3769H30.4798L30.469 30.1838C30.4559 32.3598 30.4156 32.5695 29.9989 32.6221C29.8241 32.6442 29.6495 32.5926 29.5978 32.5037C29.5475 32.417 29.5056 31.4529 29.5046 30.3615L29.503 28.3769H28.7613C28.3533 28.3769 27.987 28.4124 27.9472 28.4559ZM7.15562 28.7075C7.02787 28.9681 6.97979 33.2952 7.10081 33.6397C7.15541 33.7951 7.3739 33.8271 8.38203 33.8271C9.46028 33.8271 9.65858 33.7938 10.1412 33.5313C10.8513 33.145 11.1718 32.5448 11.2414 31.4702C11.3324 30.0672 10.9387 29.183 10.0502 28.795C9.77342 28.674 9.13237 28.5681 8.43391 28.528C7.34068 28.4649 7.2697 28.475 7.15562 28.7075ZM18.272 28.6084C18.2368 28.6706 18.5141 29.377 18.8883 30.1783C19.5411 31.5765 19.5708 31.6781 19.6243 32.7015L19.68 33.7679H20.4398H21.1995L21.2552 32.7015C21.3087 31.6781 21.3384 31.5765 21.9912 30.1783C22.3654 29.377 22.6427 28.6706 22.6075 28.6084C22.5379 28.4853 21.4827 28.4524 21.2141 28.5649C21.1228 28.6032 20.9419 28.9897 20.8119 29.4239C20.682 29.8582 20.5363 30.2604 20.4881 30.3178C20.4399 30.3752 20.2918 30.0287 20.159 29.5476C20.0262 29.0667 19.8642 28.6339 19.7988 28.586C19.6237 28.4578 18.3467 28.4765 18.272 28.6084ZM23.3975 28.5621C23.3528 28.6123 23.3161 29.8198 23.3161 31.2454V33.8375L24.103 33.8027L24.8899 33.7679L24.9219 33.0432L24.9538 32.3186L25.5022 32.2477C26.5211 32.116 27.11 31.5207 27.1968 30.5351C27.2662 29.7468 27.0224 29.2078 26.4328 28.846C26.0435 28.6072 25.7895 28.5584 24.7271 28.5181C24.0406 28.4921 23.4422 28.5118 23.3975 28.5621ZM33.5902 28.584C33.4711 28.7943 32.325 33.305 32.325 33.5632C32.325 33.8279 32.3526 33.8362 33.1119 33.8027L33.8989 33.7679L33.9531 33.3532C34.0044 32.9616 34.0329 32.9365 34.4651 32.9022C34.8892 32.8687 34.9277 32.8904 34.9897 33.1984C35.0266 33.3813 35.0755 33.5976 35.0985 33.679C35.1267 33.7791 35.3876 33.8271 35.9035 33.8271C36.5105 33.8271 36.6667 33.7906 36.6667 33.6489C36.6667 33.5052 35.8199 30.074 35.4827 28.8508C35.4054 28.5707 35.3533 28.5527 34.5233 28.5204C34.0405 28.5015 33.6206 28.5302 33.5902 28.584ZM14.6196 29.992C14.7841 30.3864 14.7713 32.0374 14.6009 32.4053C14.5013 32.6201 14.3759 32.7015 14.1444 32.7015C13.9129 32.7015 13.7875 32.6201 13.6878 32.4053C13.5165 32.0354 13.505 30.3854 13.671 29.9875C13.8764 29.4955 14.4133 29.498 14.6196 29.992ZM9.47091 30.0621C9.67269 30.3765 9.70308 31.7689 9.5178 32.2129C9.39656 32.5033 8.96544 32.7138 8.76659 32.5797C8.70961 32.5412 8.66304 31.8999 8.66304 31.1542V29.7987H8.98248C9.18958 29.7987 9.3614 29.8913 9.47091 30.0621ZM25.5412 30.3911C25.5412 30.8847 25.5191 30.9271 25.2427 30.9617C24.9514 30.9983 24.9442 30.9847 24.9442 30.3911C24.9442 29.7975 24.9514 29.7839 25.2427 29.8205C25.5191 29.8551 25.5412 29.8975 25.5412 30.3911ZM34.6567 31.0724C34.7274 31.6463 34.7162 31.6944 34.5125 31.6944C34.2 31.6944 34.1786 31.6047 34.3036 30.8175C34.4288 30.0287 34.538 30.1076 34.6567 31.0724Z" fill="#7E2726"/>
<path fill-rule="evenodd" clip-rule="evenodd" d="M12.1477 0.00716192C11.9424 0.0859658 12.456 1.46541 13.0176 2.34395C13.5097 3.11371 13.2799 2.94366 17.6868 5.79821C18.5742 6.37299 19.5615 7.01648 19.881 7.22819C20.2004 7.4399 20.7812 7.82063 21.1716 8.07427C21.5621 8.32787 22.0262 8.62951 22.203 8.74453C22.3798 8.85954 22.5444 8.98103 22.5687 9.01452C22.6202 9.08548 23.0931 9.40229 23.4049 9.57479C23.7659 9.77447 23.8225 9.74263 23.9519 9.26694C23.9866 9.13925 24.006 9.01884 23.9949 8.99935C23.9839 8.97986 24.032 8.73199 24.1018 8.44857C24.2702 7.76422 24.3228 7.45643 24.2903 7.34475C24.2525 7.21452 24.0222 7.05616 23.0646 6.50158C21.7875 5.762 20.85 5.20535 19.3862 4.31766C18.6527 3.87282 17.917 3.42888 17.7514 3.33115C16.4616 2.57002 14.132 1.1539 12.99 0.436732C12.357 0.0392846 12.2312 -0.0249138 12.1477 0.00716192ZM12.956 3.61049C12.9003 3.68375 12.9539 3.94872 13.1322 4.48146C13.33 5.07259 13.8605 6.01189 14.3674 6.66891C14.666 7.05574 14.8667 7.20898 16.181 8.05347C17.5924 8.96023 17.994 9.22703 18.1386 9.35387C18.2899 9.48664 18.5955 9.69201 19.6228 10.3511C20.0369 10.6168 20.4628 10.8939 20.5693 10.967C21.0443 11.2928 21.5592 11.6211 21.7844 11.7416L22.0291 11.8726L22.3425 11.7922C22.5149 11.748 22.7914 11.6988 22.9571 11.6829C23.1227 11.6669 23.2881 11.6373 23.3246 11.6169C23.4161 11.566 23.5458 11.0961 23.5706 10.7256C23.591 10.4211 23.5898 10.4171 23.4371 10.2708C23.3524 10.1896 23.1904 10.0655 23.0771 9.99487C22.9637 9.92433 22.6774 9.73972 22.4408 9.58469C22.2042 9.42962 21.7879 9.17724 21.5158 9.02377C21.2437 8.87034 21.0017 8.7279 20.978 8.70728C20.9197 8.65642 19.2598 7.56792 18.3322 6.97219C16.4733 5.77839 14.4087 4.43211 13.7975 4.01526C13.4058 3.74809 13.07 3.5422 13.0259 3.5422C13.016 3.5422 12.9846 3.57292 12.956 3.61049ZM25.1948 6.38919C25.159 6.48274 25.1297 6.57911 25.1297 6.60339C25.1297 6.70943 24.608 8.83939 24.5509 8.96643C24.5161 9.04392 24.4496 9.27638 24.4031 9.48302C24.3567 9.68966 24.2864 9.98552 24.2469 10.1405C23.9881 11.1559 23.9176 11.4814 23.9134 11.6811C23.9087 11.901 23.916 11.9145 24.2074 12.2211C24.6065 12.6411 24.7294 12.8511 24.8937 13.3936C25.0173 13.8015 25.0431 13.8506 25.1347 13.8506C25.2173 13.8506 25.2655 13.7913 25.3827 13.5453C25.5106 13.2767 25.802 12.7022 27.1092 10.1405C27.2806 9.80472 27.4764 9.42821 27.5444 9.30381C27.6124 9.1794 27.668 9.05242 27.668 9.02161C27.668 8.99085 27.7644 8.78618 27.8821 8.56687C28.1168 8.12973 28.1344 8.04093 28.0226 7.85618C27.9178 7.68279 27.4545 7.23936 27.1723 7.04235C26.6326 6.66548 25.6635 6.21909 25.385 6.21909C25.2819 6.21909 25.2485 6.24901 25.1948 6.38919ZM13.8368 7.39242C13.6897 7.65222 14.3947 9.2529 15.0574 10.1637C15.534 10.8188 15.6542 10.9336 16.2241 11.2786C16.6034 11.5083 17.1909 11.9119 17.2057 11.9532C17.2133 11.9741 17.3972 12.1124 17.6145 12.2606C17.8317 12.4088 18.0642 12.5788 18.1311 12.6385C18.198 12.6982 18.2788 12.7469 18.3106 12.7469C18.3889 12.7469 19.2019 13.2848 19.9949 13.8614C20.1097 13.9449 20.2338 14.0136 20.2707 14.0141C20.3076 14.0145 20.3753 14.046 20.4213 14.0839C20.6519 14.2743 20.9132 14.074 20.9065 13.7118C20.9015 13.4379 21.019 13.0744 21.2427 12.6722C21.3456 12.4872 21.4298 12.3033 21.4298 12.2636C21.4298 12.1303 21.1938 11.9583 19.7734 11.0563C19.3948 10.816 18.8974 10.4951 18.6681 10.3434C18.4387 10.1917 18.1779 10.0342 18.0885 9.99337C17.9458 9.92832 16.3598 8.91214 15.6433 8.42673C15.5013 8.33055 15.3077 8.20314 15.213 8.14364C15.1184 8.08409 14.828 7.89229 14.5677 7.7174C14.0701 7.38298 13.888 7.30201 13.8368 7.39242ZM27.869 9.77654C27.7357 10.0085 27.151 11.1542 27.0069 11.4657C26.8782 11.7439 26.8594 11.9712 26.9617 12.014C27.0517 12.0517 28.9096 12.0509 29.0829 12.013C29.3516 11.9544 29.3152 11.6908 28.9149 10.798C28.6185 10.1366 28.243 9.60043 28.0763 9.60043C28.0004 9.60043 27.9415 9.65054 27.869 9.77654ZM14.74 11.2434C14.6871 11.4252 15.0141 12.4567 15.2952 12.9952C15.6815 13.7352 16.5216 14.8549 16.7497 14.934C16.8003 14.9515 17.0754 15.1195 17.3611 15.3073C19.5426 16.7414 19.7699 16.8797 19.9458 16.8797C20.1051 16.8797 20.2653 16.7346 20.7459 16.1552C21.1327 15.6891 21.1716 15.6253 21.1716 15.4578C21.1716 15.1645 21.0365 15.0464 19.8164 14.273C19.5798 14.123 19.3572 13.9744 19.3217 13.9429C19.2862 13.9113 19.1216 13.8068 18.956 13.7106C18.7903 13.6144 18.5483 13.4572 18.4182 13.3613C18.2881 13.2655 18.1456 13.1723 18.1016 13.1543C18.0577 13.1364 17.7042 12.9106 17.3162 12.6525C16.9282 12.3945 16.5978 12.1834 16.5821 12.1834C16.5664 12.1834 16.5229 12.155 16.4856 12.1202C16.4482 12.0855 16.3305 12.0203 16.2241 11.9753C16.1176 11.9304 15.8853 11.7966 15.7078 11.678C15.5303 11.5593 15.2798 11.3921 15.151 11.3063C14.8824 11.1272 14.7784 11.1113 14.74 11.2434ZM22.603 12.2789C22.3097 12.3244 22.0596 12.4682 21.8027 12.7391C21.576 12.9782 21.4629 13.1865 21.3416 13.5878C21.2741 13.811 21.2687 13.9038 21.3044 14.2255C21.3797 14.9047 21.7115 15.4339 22.2355 15.7108C22.5096 15.8556 23.0501 15.8881 23.3227 15.7762C23.4292 15.7325 23.5981 15.6647 23.6981 15.6255C23.8285 15.5745 23.9412 15.4728 24.0967 15.266C24.3996 14.8631 24.4972 14.5659 24.5009 14.0353C24.5037 13.6453 24.492 13.583 24.3625 13.2958C24.1852 12.9027 23.8666 12.5412 23.571 12.3977C23.3153 12.2737 22.9369 12.2272 22.603 12.2789ZM26.7517 12.6049C26.5909 12.6228 26.433 12.6673 26.4009 12.7039C26.2965 12.823 26.1622 13.1418 26.1622 13.2704C26.1622 13.4099 26.2889 13.5085 27.1732 14.0568C27.4335 14.2182 27.6827 14.3794 27.727 14.415C27.8243 14.4933 27.8001 14.6374 27.6581 14.8252L27.5604 14.9544L27.1087 14.6424C26.5335 14.2452 26.0774 13.9493 25.9733 13.9059C25.8469 13.8531 25.689 13.9909 25.689 14.154C25.689 14.2757 25.7312 14.3194 26.0654 14.5439C26.2725 14.6829 26.6283 14.9062 26.8562 15.04C27.0841 15.1738 27.291 15.3102 27.316 15.3432C27.3704 15.4146 27.2338 15.7861 27.1386 15.826C27.1057 15.8398 26.7355 15.6164 26.316 15.3295C25.705 14.9116 25.527 14.8108 25.4212 14.8223C25.2648 14.8394 25.193 14.943 25.229 15.0996C25.2551 15.213 25.6803 15.5159 26.4704 15.984C26.9181 16.2492 26.9284 16.2666 26.7897 16.525C26.6531 16.7792 26.6634 16.7816 26.0248 16.3484C24.6573 15.4207 24.7059 15.437 24.3459 15.7836C24.221 15.904 23.9444 16.2049 23.7315 16.4522C23.5185 16.6996 22.9545 17.3355 22.4781 17.8653C21.2982 19.1776 21.1634 19.3472 21.1798 19.4983C21.1897 19.589 21.2267 19.6308 21.3222 19.6592C21.3932 19.6803 22.8065 19.6869 24.4628 19.6739C27.8231 19.6474 27.7818 19.6513 28.1069 19.3316C28.448 18.9962 28.461 18.9264 28.4854 17.3024L28.5069 15.87L29.0541 15.8465C29.4873 15.8279 29.6161 15.8067 29.6728 15.7447C29.7348 15.6769 29.7435 15.555 29.7374 14.8393C29.7303 13.9993 29.6876 13.5849 29.596 13.4644C29.5681 13.4276 29.4665 13.3546 29.3703 13.302C29.274 13.2494 29.0114 13.0837 28.7866 12.9336C28.4932 12.7378 28.3059 12.6464 28.1226 12.61C27.847 12.5551 27.2213 12.5528 26.7517 12.6049ZM23.3156 14.5596C23.4482 14.6609 23.4263 14.857 23.2719 14.9512C23.1666 15.0154 23.1488 15.0138 23.0675 14.9336C22.9602 14.8276 22.9533 14.6868 23.0498 14.5705C23.1371 14.465 23.1892 14.4629 23.3156 14.5596ZM15.6304 14.9636C15.5573 15.0433 15.5635 15.0944 15.7024 15.5543C16.0019 16.5462 16.4808 17.4501 17.0745 18.1439C17.6289 18.7918 17.8635 18.9927 18.0671 18.9941C18.213 18.995 18.2647 18.9499 18.7689 18.382C19.3301 17.7498 19.4652 17.5375 19.4217 17.3559C19.3957 17.2469 19.1027 17.0115 18.6548 16.7395C18.0776 16.3889 16.8888 15.5954 16.8597 15.5411C16.8425 15.5092 16.765 15.4558 16.6876 15.4225C16.6101 15.3891 16.4887 15.3165 16.4177 15.2611C16.0078 14.9411 15.7427 14.841 15.6304 14.9636ZM21.472 16.0992C21.3896 16.1607 21.0609 16.5147 20.7414 16.8858C20.422 17.257 19.8412 17.9155 19.4507 18.3493C19.0603 18.783 18.724 19.1779 18.7033 19.2268C18.6353 19.3876 18.7088 19.5421 18.9125 19.6664C19.2138 19.8502 19.5657 19.9793 19.7643 19.9788L19.9455 19.9784L21.3975 18.3361C23.082 16.4308 23.0507 16.4866 22.5217 16.3362C22.3882 16.2982 22.1475 16.2042 21.9869 16.1272C21.8264 16.0503 21.6785 15.9874 21.6584 15.9874C21.6383 15.9874 21.5544 16.0377 21.472 16.0992Z" fill="#D2AE6D"/>
</svg>
