<svg width="25" height="20" viewBox="0 0 20 15" fill="none" xmlns="http://www.w3.org/2000/svg">
<path d="M19.4108 8.16354L12.8494 14.7249C12.2636 15.3108 11.2481 14.9007 11.2481 14.061V10.3116H5.93651C5.41707 10.3116 4.99917 9.89372 4.99917 9.37427V5.6249C4.99917 5.10545 5.41707 4.68755 5.93651 4.68755H11.2481V0.938175C11.2481 0.102376 12.2597 -0.311617 12.8494 0.274223L19.4108 6.83563C19.7741 7.20276 19.7741 7.79641 19.4108 8.16354ZM7.49875 14.5297V12.9674C7.49875 12.7097 7.28785 12.4988 7.03008 12.4988H3.74938C3.05809 12.4988 2.49958 11.9403 2.49958 11.249V3.75021C2.49958 3.05892 3.05809 2.50042 3.74938 2.50042H7.03008C7.28785 2.50042 7.49875 2.28951 7.49875 2.03174V0.469503C7.49875 0.211733 7.28785 0.000830666 7.03008 0.000830666H3.74938C1.67941 0.000830666 0 1.68024 0 3.75021V11.249C0 13.3189 1.67941 14.9983 3.74938 14.9983H7.03008C7.28785 14.9983 7.49875 14.7874 7.49875 14.5297Z" fill="white"/>
</svg>
