<svg width="17" height="17" viewBox="0 0 17 17" fill="none" xmlns="http://www.w3.org/2000/svg">
<path fill-rule="evenodd" clip-rule="evenodd" d="M11.7088 1.69744C11.7568 1.74534 11.7949 1.80224 11.8209 1.86488C11.8469 1.92753 11.8602 1.99468 11.8602 2.06251C11.8602 2.13033 11.8469 2.19749 11.8209 2.26013C11.7949 2.32277 11.7568 2.37967 11.7088 2.42757L5.88529 8.25001L11.7088 14.0724C11.8056 14.1693 11.86 14.3006 11.86 14.4375C11.86 14.5744 11.8056 14.7057 11.7088 14.8026C11.6119 14.8994 11.4806 14.9538 11.3437 14.9538C11.2068 14.9538 11.0755 14.8994 10.9786 14.8026L4.79113 8.61507C4.74311 8.56717 4.70502 8.51027 4.67902 8.44763C4.65303 8.38498 4.63965 8.31783 4.63965 8.25001C4.63965 8.18218 4.65303 8.11503 4.67902 8.05238C4.70502 7.98974 4.74311 7.93284 4.79113 7.88494L10.9786 1.69744C11.0265 1.64943 11.0834 1.61133 11.1461 1.58533C11.2087 1.55934 11.2759 1.54596 11.3437 1.54596C11.4115 1.54596 11.4787 1.55934 11.5413 1.58533C11.604 1.61133 11.6609 1.64943 11.7088 1.69744Z" fill="white"/>
</svg>