<svg width="13" height="15" viewBox="0 0 9 11" fill="none" xmlns="http://www.w3.org/2000/svg">
<path d="M8.72955 2.51999C8.72955 2.69538 8.65987 2.86358 8.53586 2.98759C8.41184 3.11161 8.24364 3.18128 8.06826 3.18128H7.73762V9.13287C7.73762 9.48363 7.59827 9.82004 7.35024 10.0681C7.10221 10.3161 6.76581 10.4554 6.41504 10.4554H2.44732C2.09655 10.4554 1.76015 10.3161 1.51212 10.0681C1.26409 9.82004 1.12474 9.48363 1.12474 9.13287V3.18128H0.7941C0.618715 3.18128 0.450514 3.11161 0.326499 2.98759C0.202484 2.86358 0.132813 2.69538 0.132812 2.51999V1.85871C0.132812 1.68332 0.202484 1.51512 0.326499 1.39111C0.450514 1.26709 0.618715 1.19742 0.7941 1.19742H3.1086C3.1086 1.02204 3.17828 0.853835 3.30229 0.729819C3.42631 0.605804 3.59451 0.536133 3.76989 0.536133H5.09247C5.26785 0.536133 5.43605 0.605804 5.56007 0.729819C5.68408 0.853835 5.75375 1.02204 5.75375 1.19742H8.06826C8.24364 1.19742 8.41184 1.26709 8.53586 1.39111C8.65987 1.51512 8.72955 1.68332 8.72955 1.85871V2.51999ZM1.86406 3.18128L1.78603 3.2203V9.13287C1.78603 9.30825 1.8557 9.47645 1.97972 9.60047C2.10373 9.72448 2.27193 9.79415 2.44732 9.79415H6.41504C6.59043 9.79415 6.75863 9.72448 6.88264 9.60047C7.00666 9.47645 7.07633 9.30825 7.07633 9.13287V3.2203L6.9983 3.18128H1.86406ZM0.7941 2.51999H8.06826V1.85871H0.7941V2.51999Z" fill="#A2A0A0"/>
<path d="M2.77791 4.17322C2.8656 4.17322 2.9497 4.20805 3.01171 4.27006C3.07372 4.33207 3.10855 4.41617 3.10855 4.50386V8.47158C3.10855 8.55928 3.07372 8.64338 3.01171 8.70539C2.9497 8.76739 2.8656 8.80223 2.77791 8.80223C2.69022 8.80223 2.60612 8.76739 2.54411 8.70539C2.4821 8.64338 2.44727 8.55928 2.44727 8.47158V4.50386C2.44727 4.41617 2.4821 4.33207 2.54411 4.27006C2.60612 4.20805 2.69022 4.17322 2.77791 4.17322ZM4.43113 4.17322C4.51882 4.17322 4.60292 4.20805 4.66493 4.27006C4.72694 4.33207 4.76177 4.41617 4.76177 4.50386V8.47158C4.76177 8.55928 4.72694 8.64338 4.66493 8.70539C4.60292 8.76739 4.51882 8.80223 4.43113 8.80223C4.34344 8.80223 4.25933 8.76739 4.19733 8.70539C4.13532 8.64338 4.10048 8.55928 4.10048 8.47158V4.50386C4.10048 4.41617 4.13532 4.33207 4.19733 4.27006C4.25933 4.20805 4.34344 4.17322 4.43113 4.17322ZM6.41499 4.50386C6.41499 4.41617 6.38015 4.33207 6.31815 4.27006C6.25614 4.20805 6.17204 4.17322 6.08435 4.17322C5.99665 4.17322 5.91255 4.20805 5.85054 4.27006C5.78854 4.33207 5.7537 4.41617 5.7537 4.50386V8.47158C5.7537 8.55928 5.78854 8.64338 5.85054 8.70539C5.91255 8.76739 5.99665 8.80223 6.08435 8.80223C6.17204 8.80223 6.25614 8.76739 6.31815 8.70539C6.38015 8.64338 6.41499 8.55928 6.41499 8.47158V4.50386Z" fill="#A2A0A0"/>
</svg>
